<svg xmlns="http://www.w3.org/2000/svg" width="116" height="51" fill="none"><g fill="#fff" clip-path="url(#a)" opacity=".6"><path d="M6.441 19.669c11.769 9.003 25.494 9.668 38.316 12.81C37.774 34.292 6.2 38.461 6.44 19.67Z" opacity=".9"/><path d="M19.925 38.371c8.79 1.027 16.133-1.33 24.651-2.206-8.91 4.05-15.862 9.79-24.65 2.206Z"/><path d="M28.774 47.314c5.84-1.601 10.745-5.076 16.223-8.49-3.43 4.411-11.407 13.324-16.223 8.49Z" opacity=".9"/><path d="M36.57 50.879c2.83-1.813 8.397-8.732 8.548-8.61.18.15-1.836 5.921-3.943 7.553-2.107 1.661-4.605 1.057-4.605 1.057ZM0 0s8.759 7.1 21.28 11.21c6.47 2.114 37.743 12.93 40.693 28.128.361 1.843-4.063-6.828-14.628-10.092C31.393 24.261 3.13 22.72 0 0Z"/><path d="m53.06 46.93.113.086c-1.22-1.11-2.127-2.56-2.61-4.265-.907-3.27.086-6.654 2.298-9.014-.283-.142-.539-.255-.709-.284-.17-.057-.369-.114-.567-.17l-.085-.029h-.057l-.057-.028c-.283-.086-.595-.228-.907-.313-1.816 2.673-2.61 5.715-1.532 9.497 1.05 3.753 4.51 7.193 8.424 8.046l1.93-2.957a8.19 8.19 0 0 1-3.575-1.876l.085.056a7.624 7.624 0 0 1-2.212-3.61c-.71-2.503-.085-5.09 1.446-7.052-.283-.17-.595-.37-.879-.54-.284-.17-.567-.341-.822-.484a9.698 9.698 0 0 0-1.107 7.763 9.483 9.483 0 0 0 5.532 6.255l-.653 1.223c-1.532-.427-2.893-1.28-4.056-2.303Zm17.275-10.747c.227.767.34 1.535.397 2.331-.142-.028-.284-.057-.426-.057-.34-.028-.709-.028-1.05-.028a10.218 10.218 0 0 0-.226-.995c-.312-1.166-.88-2.218-1.56-3.128-1.986-2.104-5.106-3.07-8.17-2.19l-.17.058a7.905 7.905 0 0 0-.482-.711c-.114-.142-.255-.285-.397-.455l-.199-.2-.056-.056-.029-.028-.028-.029-.029-.028-.028-.029-.028-.028-.057-.057h-.028a14.4 14.4 0 0 0-1.277-1.024c-.255-.199-.51-.37-.737-.54.34-.142.709-.256 1.078-.37 5.644-1.904 11.828 1.593 13.502 7.564ZM65.495 49.49c-.572 0-1.114-.091-1.626-.303a3.187 3.187 0 0 1-1.294-.876 3.711 3.711 0 0 1-.843-1.42c-.21-.544-.3-1.209-.3-1.903 0-.695.12-1.33.33-1.904.211-.574.512-1.027.873-1.42a3.401 3.401 0 0 1 1.294-.876 4.052 4.052 0 0 1 1.596-.302c.632 0 1.143.12 1.565.332a4.11 4.11 0 0 1 1.053.756l-.812.997a3.243 3.243 0 0 0-.723-.544c-.27-.151-.602-.212-1.023-.212-.391 0-.753.06-1.054.212a2.703 2.703 0 0 0-.812.634c-.21.272-.392.605-.512.997-.12.393-.18.816-.18 1.33 0 .997.21 1.782.662 2.326.451.574 1.113.846 1.986.846.241 0 .482-.03.692-.09.211-.061.392-.152.542-.273v-1.873h-1.655v-1.269h3.01v3.837a3.107 3.107 0 0 1-1.144.726 4.586 4.586 0 0 1-1.625.271ZM69.92 49.338v-8.701h1.534v7.402h3.612v1.3h-5.147ZM79.52 48.16c.332 0 .663-.06.934-.211.27-.151.511-.363.692-.635.18-.272.33-.604.451-.997.12-.393.15-.846.15-1.33 0-.966-.21-1.752-.601-2.296-.392-.543-.933-.815-1.626-.815-.692 0-1.233.272-1.625.816-.391.543-.602 1.329-.602 2.296 0 .483.06.936.15 1.33.121.392.272.724.452.996s.422.483.693.635c.27.12.571.211.933.211Zm0 1.33c-.571 0-1.083-.091-1.534-.303a3.26 3.26 0 0 1-1.205-.906A4.318 4.318 0 0 1 76 46.86c-.18-.544-.27-1.178-.27-1.903 0-.695.09-1.33.27-1.874.18-.544.452-1.027.782-1.39a3.188 3.188 0 0 1 1.204-.876 3.765 3.765 0 0 1 1.535-.302c.572 0 1.084.09 1.535.302.482.212.873.484 1.204.876.332.393.602.846.783 1.39.18.544.27 1.179.27 1.873 0 .695-.09 1.33-.27 1.904a4.316 4.316 0 0 1-.782 1.42 3.525 3.525 0 0 1-1.205.906c-.451.212-.993.303-1.535.303ZM84.547 49.338v-8.701h1.746l1.535 4.26c.09.272.18.544.27.846.09.302.181.574.272.846h.06c.09-.272.18-.574.27-.846.09-.302.181-.574.271-.846l1.505-4.26h1.746v8.701h-1.414V45.38c0-.211 0-.423.03-.665.03-.241.03-.483.06-.725.03-.241.03-.483.06-.725.03-.241.06-.453.06-.664h-.06l-.692 2.024-1.415 3.897h-.903l-1.414-3.897-.693-2.024h-.06c.03.211.03.423.06.664.03.242.03.484.06.725.03.242.03.484.06.725 0 .242.03.454.03.665v3.958h-1.444ZM96.316 44.715l-.301 1.058h2.197l-.301-1.058c-.15-.453-.271-.936-.392-1.42-.12-.483-.24-.966-.39-1.45h-.061l-.361 1.45c-.12.484-.271.967-.391 1.42Zm-2.92 4.623 2.83-8.701h1.805l2.829 8.701h-1.625l-.662-2.357h-2.92l-.662 2.357h-1.595ZM105.074 49.49c-.542 0-1.053-.091-1.535-.303a2.993 2.993 0 0 1-1.234-.876 3.653 3.653 0 0 1-.812-1.42c-.211-.544-.301-1.209-.301-1.903 0-.695.09-1.33.301-1.904.21-.574.481-1.027.842-1.42a3.3 3.3 0 0 1 1.264-.876 3.768 3.768 0 0 1 1.535-.302c.542 0 1.024.12 1.445.332.422.212.783.484 1.054.786l-.813.997a2.509 2.509 0 0 0-.753-.544 1.807 1.807 0 0 0-.902-.212c-.362 0-.663.06-.964.212-.301.151-.541.362-.782.634a3.115 3.115 0 0 0-.512.997 4.45 4.45 0 0 0-.18 1.33c0 .997.21 1.782.632 2.326.421.544.993.846 1.745.846.392 0 .723-.09 1.024-.241.301-.151.572-.393.812-.635l.813.967c-.361.393-.752.725-1.204.937-.421.18-.933.271-1.475.271ZM112.177 48.16c.332 0 .663-.06.934-.211.27-.151.511-.363.692-.635.18-.272.331-.604.451-.997.121-.393.151-.846.151-1.33 0-.966-.211-1.752-.602-2.296-.391-.543-.933-.815-1.626-.815-.692 0-1.234.272-1.625.816-.391.543-.602 1.329-.602 2.296 0 .483.06.936.151 1.33.12.392.271.724.451.996.181.272.422.483.692.635.271.12.572.211.933.211Zm0 1.33c-.571 0-1.083-.091-1.535-.303a3.261 3.261 0 0 1-1.203-.906 4.307 4.307 0 0 1-.783-1.42c-.181-.544-.271-1.178-.271-1.903 0-.695.09-1.33.271-1.874.181-.544.451-1.027.783-1.39a3.189 3.189 0 0 1 1.203-.876 3.77 3.77 0 0 1 1.535-.302c.572 0 1.084.09 1.536.302.481.212.872.484 1.203.876.332.393.602.846.783 1.39.181.544.271 1.179.271 1.873 0 .695-.09 1.33-.271 1.904a4.307 4.307 0 0 1-.783 1.42 3.525 3.525 0 0 1-1.203.906c-.452.212-.994.303-1.536.303Z"/></g><defs><clipPath id="a"><path fill="#fff" d="M0 0h116v51H0z"/></clipPath></defs></svg>