<svg xmlns="http://www.w3.org/2000/svg" width="250" height="109" fill="none"><g fill="#fff" clip-path="url(#a)"><path d="M13.882 42.037c25.363 19.243 54.943 20.664 82.576 27.38-15.05 3.874-83.095 12.785-82.576-27.38Z" opacity=".9"/><path d="M42.942 82.008c18.942 2.196 34.77-2.84 53.127-4.714-19.2 8.653-34.185 20.922-53.127 4.714Z"/><path d="M62.014 101.122C74.597 97.7 85.17 90.274 96.977 82.977c-7.395 9.427-24.585 28.477-34.964 18.145Z" opacity=".9"/><path d="M78.814 108.742c6.098-3.875 18.098-18.662 18.423-18.404.389.323-3.957 12.657-8.498 16.144-4.54 3.551-9.925 2.26-9.925 2.26ZM0 0s18.877 15.175 45.861 23.957c13.947 4.52 81.344 27.637 87.702 60.118.778 3.939-8.758-14.594-31.526-21.568C67.657 51.853 6.747 48.56 0 0Z"/><path d="m114.353 100.302.245.183c-2.629-2.37-4.585-5.47-5.625-9.116-1.956-6.988.184-14.22 4.952-19.263-.611-.304-1.161-.547-1.528-.608-.367-.122-.795-.243-1.223-.365l-.183-.06h-.122l-.123-.061c-.611-.183-1.284-.487-1.956-.669-3.913 5.712-5.624 12.215-3.301 20.297 2.262 8.022 9.72 15.375 18.156 17.198l4.157-6.32c-2.873-.669-5.502-2.067-7.702-4.011l.183.121c-2.201-2.005-3.913-4.618-4.768-7.717-1.529-5.348-.184-10.878 3.117-15.07-.611-.365-1.283-.79-1.895-1.155a62.575 62.575 0 0 0-1.773-1.034 20.584 20.584 0 0 0-2.384 16.59c1.773 6.32 6.297 11.06 11.921 13.369l-1.406 2.614c-3.301-.912-6.235-2.735-8.742-4.923Zm37.23-22.97c.489 1.64.734 3.281.856 4.983-.306-.061-.611-.122-.917-.122-.734-.06-1.528-.06-2.262-.06a21.742 21.742 0 0 0-.489-2.128c-.672-2.491-1.895-4.74-3.362-6.684-4.28-4.497-11.004-6.563-17.607-4.68l-.366.122a16.993 16.993 0 0 0-1.04-1.519c-.244-.304-.55-.608-.856-.972l-.427-.426-.123-.121-.061-.061-.061-.06-.061-.062-.061-.06-.061-.061-.123-.122h-.061c-.856-.79-1.834-1.519-2.751-2.187-.55-.426-1.1-.79-1.589-1.155.733-.304 1.528-.547 2.323-.79 12.165-4.072 25.492 3.403 29.099 16.165ZM141.152 105.771c-1.232 0-2.4-.194-3.503-.646-1.103-.387-2.011-1.033-2.789-1.872-.778-.84-1.427-1.808-1.816-3.035-.454-1.162-.649-2.583-.649-4.068 0-1.485.259-2.842.713-4.068a8.944 8.944 0 0 1 1.882-3.035 7.327 7.327 0 0 1 2.789-1.873c1.103-.452 2.205-.646 3.438-.646 1.362 0 2.465.259 3.373.71a8.84 8.84 0 0 1 2.27 1.615l-1.751 2.13a6.974 6.974 0 0 0-1.557-1.161c-.584-.323-1.297-.453-2.205-.453-.844 0-1.622.13-2.271.453a5.822 5.822 0 0 0-1.751 1.356 6.637 6.637 0 0 0-1.103 2.13c-.259.84-.389 1.744-.389 2.842 0 2.13.454 3.81 1.427 4.972.973 1.227 2.4 1.808 4.281 1.808.519 0 1.038-.065 1.492-.194a3.3 3.3 0 0 0 1.168-.581v-4.004h-3.568V95.44h6.487v8.201c-.649.646-1.427 1.163-2.465 1.55-1.038.387-2.206.581-3.503.581ZM150.688 105.448V86.851h3.308v15.821h7.784v2.776h-11.092ZM171.38 102.929c.714 0 1.427-.129 2.011-.452a4.267 4.267 0 0 0 1.492-1.356c.389-.581.714-1.291.973-2.13.26-.84.325-1.809.325-2.842 0-2.066-.454-3.745-1.298-4.908-.843-1.162-2.011-1.743-3.503-1.743s-2.659.581-3.502 1.743c-.844 1.163-1.298 2.842-1.298 4.908 0 1.033.13 2.002.325 2.841.259.84.583 1.55.973 2.131a4.267 4.267 0 0 0 1.492 1.356c.583.258 1.232.452 2.01.452Zm0 2.841c-1.232 0-2.335-.193-3.308-.645a7.022 7.022 0 0 1-2.595-1.938 9.196 9.196 0 0 1-1.686-3.035c-.389-1.162-.584-2.518-.584-4.068 0-1.485.195-2.84.584-4.003.389-1.163.973-2.196 1.686-2.97.714-.84 1.557-1.421 2.595-1.873 1.038-.452 2.141-.646 3.308-.646 1.233 0 2.336.194 3.309.646 1.038.452 1.881 1.033 2.594 1.872a8.877 8.877 0 0 1 1.687 2.97c.389 1.163.584 2.52.584 4.004 0 1.486-.195 2.842-.584 4.068a9.18 9.18 0 0 1-1.687 3.035c-.713.84-1.621 1.486-2.594 1.938-.973.452-2.141.645-3.309.645ZM182.213 105.448V86.851h3.763l3.308 9.105c.194.581.389 1.162.584 1.808.194.646.389 1.227.584 1.808h.129c.195-.581.389-1.227.584-1.808.195-.646.389-1.227.584-1.808l3.243-9.105h3.763v18.597h-3.049v-8.459c0-.452 0-.904.065-1.42.065-.517.065-1.034.129-1.55.065-.517.065-1.033.13-1.55.065-.517.13-.969.13-1.42h-.13l-1.492 4.326-3.049 8.33h-1.946l-3.048-8.33-1.492-4.327h-.13c.065.452.065.904.13 1.421.064.517.064 1.033.129 1.55.065.516.065 1.033.13 1.55 0 .516.065.968.065 1.42v8.459h-3.114ZM207.577 95.569l-.649 2.26h4.735l-.648-2.26c-.325-.97-.584-2.002-.844-3.035-.259-1.034-.519-2.067-.843-3.1h-.13l-.778 3.1c-.26 1.033-.584 2.066-.843 3.034Zm-6.293 9.879 6.098-18.597h3.892l6.098 18.597h-3.503l-1.427-5.036h-6.292l-1.428 5.036h-3.438ZM226.453 105.771c-1.168 0-2.27-.194-3.308-.646a6.446 6.446 0 0 1-2.66-1.872 7.81 7.81 0 0 1-1.751-3.035c-.454-1.162-.649-2.583-.649-4.068 0-1.485.195-2.842.649-4.068.454-1.227 1.038-2.196 1.816-3.035.779-.84 1.687-1.486 2.725-1.873 1.037-.452 2.14-.646 3.308-.646 1.167 0 2.205.259 3.113.71.909.453 1.687 1.034 2.271 1.68l-1.752 2.13c-.519-.516-1.037-.904-1.621-1.162-.584-.323-1.233-.452-1.946-.452-.779 0-1.427.13-2.076.452-.649.323-1.168.775-1.687 1.356a6.615 6.615 0 0 0-1.102 2.131c-.26.84-.39 1.744-.39 2.841 0 2.131.454 3.81 1.363 4.972.908 1.163 2.14 1.809 3.762 1.809.843 0 1.557-.194 2.205-.517.649-.323 1.233-.839 1.752-1.356l1.751 2.066c-.778.84-1.621 1.55-2.594 2.002-.909.387-2.011.581-3.179.581ZM241.762 102.93c.713 0 1.427-.129 2.011-.452a4.275 4.275 0 0 0 1.492-1.356c.389-.581.713-1.292.973-2.131.259-.84.324-1.808.324-2.841 0-2.067-.454-3.746-1.297-4.908-.844-1.162-2.011-1.743-3.503-1.743s-2.66.58-3.503 1.743c-.843 1.162-1.297 2.841-1.297 4.908 0 1.033.129 2.001.324 2.84.259.84.584 1.551.973 2.132a4.267 4.267 0 0 0 1.492 1.356c.584.258 1.232.452 2.011.452Zm0 2.841c-1.233 0-2.335-.194-3.308-.646a7.011 7.011 0 0 1-2.595-1.937 9.198 9.198 0 0 1-1.687-3.035c-.389-1.162-.583-2.518-.583-4.068 0-1.485.194-2.841.583-4.003.39-1.163.973-2.196 1.687-2.97.713-.84 1.557-1.421 2.595-1.873 1.037-.453 2.14-.646 3.308-.646 1.232 0 2.335.194 3.308.645 1.038.453 1.881 1.034 2.595 1.873a8.892 8.892 0 0 1 1.686 2.97c.39 1.163.584 2.519.584 4.004 0 1.485-.194 2.841-.584 4.068a9.196 9.196 0 0 1-1.686 3.035c-.714.84-1.622 1.485-2.595 1.937-.973.452-2.141.646-3.308.646Z"/></g><defs><clipPath id="a"><path fill="#fff" d="M0 0h250v109H0z"/></clipPath></defs></svg>