<svg xmlns="http://www.w3.org/2000/svg" width="206" height="29" fill="none"><g fill="#fff" clip-path="url(#a)"><path d="M49.925 11.52c0 .805-.243 1.45-.808 1.772-.566.402-1.293.563-2.181.563h-2.909V9.104h2.909c.888 0 1.615.16 2.18.564.486.402.809.966.809 1.852Zm.565-3.545c-.485-.322-1.13-.564-1.777-.725a8.83 8.83 0 0 0-2.1-.242h-4.767v15.95h2.181V15.95h2.909c.565 0 1.13-.08 1.777-.242a5.394 5.394 0 0 0 1.696-.725c.566-.322.97-.805 1.293-1.37.323-.563.485-1.288.485-2.174 0-.806-.162-1.53-.485-2.095-.242-.563-.727-1.047-1.212-1.369ZM63.093 11.52c0 .563-.162 1.047-.404 1.369-.243.322-.647.564-1.05.725-.485.161-.97.241-1.455.241h-2.989V9.104h2.424c.485 0 .889 0 1.292.08.404.08.808.161 1.131.323.324.16.566.402.808.724.162.323.243.726.243 1.29Zm1.292 2.9c.727-.726 1.05-1.692 1.05-2.9 0-.967-.161-1.773-.565-2.417-.404-.564-.889-1.047-1.535-1.37-.566-.322-1.293-.483-2.02-.564-.727-.08-1.534-.16-2.262-.16h-4.12v15.95h2.182V15.95h2.1l4.2 6.928.081.08h2.666l-4.443-7.25c1.05-.16 2.02-.644 2.666-1.289ZM82.077 14.983c0 .886-.162 1.692-.404 2.417-.323.725-.727 1.45-1.212 2.014a5.31 5.31 0 0 1-1.858 1.37c-.727.322-1.535.483-2.423.483-.889 0-1.697-.162-2.424-.484a5.31 5.31 0 0 1-1.858-1.37 4.661 4.661 0 0 1-1.212-2.013c-.323-.725-.404-1.611-.404-2.417 0-.886.162-1.691.404-2.497.323-.725.727-1.45 1.212-2.014.566-.564 1.131-1.047 1.858-1.37.727-.322 1.535-.483 2.424-.483.888 0 1.696.161 2.423.484a5.312 5.312 0 0 1 1.858 1.37c.485.563.97 1.207 1.212 2.013.242.806.404 1.611.404 2.497Zm0-5.96c-.727-.726-1.616-1.37-2.666-1.773a8.665 8.665 0 0 0-3.312-.645 8.665 8.665 0 0 0-3.312.645c-.97.403-1.858 1.047-2.666 1.772-.727.725-1.293 1.611-1.697 2.659-.404 1.047-.646 2.175-.646 3.302 0 1.209.242 2.336.646 3.303.404 1.047.97 1.933 1.697 2.658.727.725 1.616 1.29 2.666 1.773.97.402 2.1.644 3.312.644a8.665 8.665 0 0 0 3.312-.644c.97-.403 1.858-1.048 2.666-1.773.727-.725 1.292-1.61 1.696-2.658.404-1.047.647-2.175.647-3.303a8.598 8.598 0 0 0-.647-3.303c-.404-1.047-.969-1.933-1.696-2.658ZM85.631 9.103h5.09v13.855h2.262V9.103h5.09V7.008H85.63v2.095ZM102.515 15.708h7.432v-2.094h-7.432V9.103h7.917V7.008h-10.098v15.95h10.502v-2.094h-8.321v-5.156ZM125.297 19.172c-.566.645-1.212 1.209-1.859 1.611-.727.322-1.534.564-2.504.564a5.541 5.541 0 0 1-2.343-.483c-.727-.322-1.292-.806-1.777-1.37a7.053 7.053 0 0 1-1.212-2.014c-.323-.724-.404-1.61-.404-2.497 0-.805.162-1.61.404-2.416.243-.725.647-1.45 1.212-2.014a5.314 5.314 0 0 1 1.858-1.37 5.538 5.538 0 0 1 2.343-.483c.727 0 1.454.161 2.1.483.647.322 1.212.725 1.697 1.37l.081.16 1.858-1.369-.081-.16c-.646-.887-1.535-1.531-2.504-1.934-.97-.403-2.02-.564-3.151-.564a8.249 8.249 0 0 0-3.231.644c-.97.403-1.858 1.048-2.586 1.773-.727.725-1.292 1.61-1.696 2.658-.404 1.047-.565 2.095-.565 3.303 0 1.208.242 2.336.646 3.303.404.966.969 1.933 1.696 2.658.727.725 1.616 1.289 2.585 1.772.97.403 2.02.645 3.232.645 1.292 0 2.423-.242 3.393-.645 1.05-.483 1.858-1.208 2.585-2.094l.081-.161-1.697-1.37h-.161ZM142.665 14.983c0 .886-.161 1.692-.404 2.417-.323.725-.727 1.45-1.212 2.014a5.304 5.304 0 0 1-1.858 1.37c-.727.322-1.535.483-2.423.483-.889 0-1.697-.162-2.424-.484a5.314 5.314 0 0 1-1.858-1.37 4.66 4.66 0 0 1-1.211-2.013c-.324-.725-.404-1.611-.404-2.417 0-.886.161-1.691.404-2.497.323-.725.727-1.45 1.211-2.014.566-.564 1.131-1.047 1.858-1.37.727-.322 1.535-.483 2.424-.483.888 0 1.696.161 2.423.484a5.305 5.305 0 0 1 1.858 1.37c.485.563.97 1.207 1.212 2.013.243.806.404 1.611.404 2.497Zm1.697-3.303c-.404-1.047-.97-1.933-1.697-2.658-.727-.725-1.616-1.37-2.666-1.772a8.662 8.662 0 0 0-3.312-.645 8.662 8.662 0 0 0-3.312.645c-.97.403-1.858 1.047-2.666 1.772-.727.725-1.293 1.611-1.696 2.659-.404 1.047-.647 2.175-.647 3.302 0 1.209.243 2.336.647 3.303.403 1.047.969 1.933 1.696 2.658.727.725 1.616 1.37 2.666 1.773.969.402 2.1.644 3.312.644a8.662 8.662 0 0 0 3.312-.644c.97-.403 1.858-1.048 2.666-1.773.727-.725 1.293-1.61 1.697-2.658.403-1.047.646-2.175.646-3.303a8.615 8.615 0 0 0-.646-3.303ZM160.599 12.647a2.556 2.556 0 0 1-1.131-1.128c-.242-.483-.404-.966-.404-1.61 0-.645.162-1.129.404-1.612.243-.483.647-.805 1.131-1.128a3.686 3.686 0 0 1 1.616-.402c.485 0 .969.08 1.373.241.404.161.727.403 1.05.725l-.727.645c-.404-.484-.969-.725-1.615-.725-.404 0-.808.08-1.131.241a1.58 1.58 0 0 0-.727.725c-.162.323-.243.645-.243 1.128 0 .403.081.806.243 1.128.161.322.404.564.727.725.323.161.727.242 1.131.242.646 0 1.131-.242 1.615-.725l.727.644c-.242.322-.646.564-1.05.725a3.78 3.78 0 0 1-1.373.242c-.566.322-1.131.241-1.616-.08ZM169.647 11.842a1.58 1.58 0 0 0 .727-.725 2.47 2.47 0 0 0 .243-1.048 2.22 2.22 0 0 0-.243-1.047 1.58 1.58 0 0 0-.727-.725 2.24 2.24 0 0 0-1.05-.242c-.404 0-.727.081-1.05.242a1.58 1.58 0 0 0-.727.725 2.22 2.22 0 0 0-.243 1.047c0 .403.081.725.243 1.048.161.322.404.563.727.725a2.24 2.24 0 0 0 1.05.241c.323 0 .727-.08 1.05-.241Zm-2.747.805a2.556 2.556 0 0 1-1.131-1.128c-.242-.483-.403-.966-.403-1.61 0-.565.161-1.129.403-1.612.243-.483.647-.805 1.131-1.128a3.69 3.69 0 0 1 1.616-.402c.646 0 1.131.16 1.616.402a2.55 2.55 0 0 1 1.131 1.128c.242.483.404.967.404 1.611 0 .645-.162 1.128-.404 1.611-.243.484-.646.806-1.131 1.128a3.687 3.687 0 0 1-1.616.403c-.565 0-1.131-.08-1.616-.403ZM178.533 12.97V9.021l-1.939 3.303h-.484l-2.02-3.303v3.947h-1.05V7.01h.889l2.423 3.947 2.343-3.948h.888v5.961h-1.05ZM184.834 9.989c.243-.242.404-.483.404-.886s-.161-.645-.404-.886c-.242-.242-.646-.323-1.131-.323h-1.292v2.417h1.292c.485 0 .889-.08 1.131-.322Zm.324-2.74c.404.162.646.404.888.726.243.322.323.725.323 1.128 0 .403-.08.805-.323 1.127-.242.323-.484.564-.888.726-.404.16-.808.241-1.374.241h-1.373v1.692h-1.131V6.928h2.504c.485.08.97.16 1.374.322ZM190.893 10.714l-1.131-2.658-1.131 2.658h2.262Zm.323.886h-2.989l-.565 1.37h-1.131l2.666-5.962h1.131l2.666 5.961h-1.131l-.647-1.369ZM199.295 7.008v5.961h-.889l-3.312-4.027v4.027h-1.05V7.01h.889l3.312 4.027V7.008h1.05ZM203.738 10.875v2.094h-1.131v-2.094l-2.343-3.867h1.212l1.777 2.9 1.778-2.9h1.05l-2.343 3.867ZM163.507 20.22h1.051v2.416c-.323.242-.647.403-1.051.564-.403.161-.807.161-1.292.161-.646 0-1.131-.161-1.616-.403a2.555 2.555 0 0 1-1.131-1.128c-.242-.483-.404-.966-.404-1.61 0-.565.162-1.128.404-1.612.243-.483.647-.805 1.131-1.128a3.764 3.764 0 0 1 1.697-.402c.484 0 .969.08 1.373.241.404.161.727.403 1.05.725l-.727.725c-.485-.483-.969-.725-1.616-.725-.403 0-.807.08-1.13.242-.324.161-.566.403-.808.725a2.561 2.561 0 0 0-.243 1.128c0 .402.081.725.243 1.047.161.322.404.564.808.725.323.161.727.242 1.13.242.485 0 .889-.08 1.212-.323v-1.61h-.081ZM169.647 18.528c-.242-.242-.646-.322-1.131-.322h-1.292v2.416h1.292c.485 0 .889-.08 1.131-.322s.404-.483.404-.886-.081-.725-.404-.886Zm.404 4.752-1.212-1.772h-1.615v1.772h-1.131v-5.96h2.423c.485 0 .97.08 1.373.241.404.161.647.403.889.725.242.322.323.725.323 1.128 0 .483-.081.805-.323 1.128a2.202 2.202 0 0 1-.969.725l1.373 1.933h-1.131v.08ZM176.433 22.072c.323-.161.565-.403.727-.725.162-.322.242-.725.242-1.047 0-.403-.08-.725-.242-1.047a1.586 1.586 0 0 0-.727-.725 2.24 2.24 0 0 0-1.05-.242c-.404 0-.727.08-1.05.242a1.583 1.583 0 0 0-.728.725 2.232 2.232 0 0 0-.242 1.047c0 .403.081.725.242 1.047.162.322.404.564.728.725a2.24 2.24 0 0 0 1.05.242c.323.08.727 0 1.05-.242Zm-2.747.886a2.555 2.555 0 0 1-1.131-1.128c-.242-.483-.404-.966-.404-1.61 0-.645.162-1.128.404-1.612.243-.483.647-.805 1.131-1.128a3.686 3.686 0 0 1 1.616-.402c.646 0 1.131.16 1.616.402.484.242.888.645 1.131 1.128.242.483.404.967.404 1.611 0 .645-.162 1.128-.404 1.611-.243.484-.647.806-1.131 1.128a3.69 3.69 0 0 1-1.616.403 3.686 3.686 0 0 1-1.616-.403ZM180.391 22.636c-.484-.483-.727-1.128-.727-2.014V17.24h1.131v3.303c0 1.208.485 1.772 1.535 1.772.97 0 1.535-.564 1.535-1.772v-3.303h1.131v3.383c0 .886-.242 1.53-.727 2.014-.485.483-1.131.725-1.939.725-.888 0-1.535-.242-1.939-.725ZM190.086 20.3c.242-.242.403-.483.403-.886s-.161-.645-.403-.886c-.243-.242-.647-.323-1.131-.323h-1.293v2.417h1.293c.484 0 .888-.161 1.131-.322Zm.323-2.82c.404.162.646.403.888.725.243.323.323.725.323 1.128 0 .403-.08.806-.323 1.128-.242.322-.484.564-.888.725-.404.161-.808.242-1.374.242h-1.373v1.691h-1.131v-5.96h2.504c.485.08.97.16 1.374.321ZM152.602 5.397h-1.131V24.65h1.131V5.397ZM8.967 12.647c0-.08.08-.16.08-.241h-.08l-.485-.564.647.322c.161-.322.242-.564.404-.806l-2.99-1.691L3.07 5.639c0 .08-.081.08-.081.161l3.15 3.625L2.1 7.09l-.242.483 4.928 2.82-5.17-2.497-.243.483 6.705 3.303.566.644L.808 9.667c0 .08 0 .08-.08.16l8.077 2.82h.162Zm1.05-1.933L3.312 5.317c0 .08-.08.08-.08.16l6.704 5.398c0-.08.081-.08.081-.161Zm-1.13 2.014L.564 10.472c-.08.161-.08.322-.161.564l8.32 2.256c.081-.242.162-.403.162-.564Zm16.48 2.014h-1.94l-.161.966 4.12.645-2.02-1.611Zm-1.859-1.692.081-.242-.323.08.242.162Zm-.485-.403.485-.08v-.08l-.485.16Zm-.161.08-.404.081.404-.08Zm-1.373-1.369 2.423-.966.242-1.773-3.473 2.095.808.644Zm-.97-.725 3.636-2.175.403-2.577-4.847 4.188.808.564Zm3.07 2.74-.162.885h1.212l-1.05-.886Zm-.566 2.497-2.665-.403.484.483 2.1.564.081-.644Zm-.161 1.208-1.373-.403.08.08 1.293.403v-.08ZM22.7 18.93l.889.483h.08l-.08-.08-.889-.403Zm0-.887.081-.644-.97-.322.89.966Zm-1.454-1.369-.727-.242.727.242Zm1.212 2.82-1.13-.162-.89-.16 1.778 1.45.242-1.129Zm-.242 1.288-2.1-1.691-.728-.08 2.666 2.657.162-.886Zm-.243 1.53L18.5 18.85h-.162l3.554 4.028.081-.564Zm-.565-3.221.646.08-1.777-1.047 1.13.967Zm-.162 7.733-3.473-4.028 1.13 2.98 2.263 1.29.08-.242Zm-2.585-1.128-1.292-3.222-.162-.161.889 3.142.565.241Zm-1.373-3.786-.242-.644.161.483.08.161Zm-.727 2.578-.243-.806.243.806Zm-4.686-2.98-.242.241.08.08.162-.322Zm-.161.483-.162-.08-.404.483v1.127l.566-1.53Zm-.566.08.243-.322-.243-.161v.483Zm-.161.242v-.403l-.808 1.37.808-.967ZM9.29 17.4l-1.05-.161-2.02.805-.323.484.808.403L9.29 17.4Zm-2.746 1.692-.728-.403-.646 1.208 1.374-.805Zm-1.05-2.82-.97.161h.161l.808-.16Zm-.728 1.53h-.08.08Zm-.404-1.207H4.04l-1.212.241.324.161 1.211-.402Zm-1.777.08.97-.161-1.778-.322.808.483ZM14.3 8.539V5.88l-.889-.725-.565.966.161.967 1.293 1.45Zm-.808-3.545.808.645V3.625l-.808 1.37ZM12.36 4.35v-.08l-.242-.162.161.484.081-.242Zm-1.05 1.772-.485-1.691v.483l.485 1.208Zm-.081.242-.404-.967v1.611l.404-.644Zm-.565-1.933v-.645l-.324-1.128-.484-.402.808 2.175ZM28.92 14.74h-3.232l2.1 1.692 1.051.162v.16l-.727-.08.646.564v.161l-.97-.805-4.442-.725-.081.644 5.332 1.45c-.081.161-.081.322-.162.564l-5.332-1.45v.16l5.17 1.773c0 .08 0 .08-.08.161l-5.17-1.772-.162.806.242.241 2.585 1.29 2.1.321c0 .08-.08.08-.08.162l-1.535-.242 1.293.644-.243.484-2.908-1.45h-.242l.08.08 2.909 1.692-.243.483-1.535-.886 1.212 1.37c0 .08-.08.08-.08.16l-1.535-1.772-2.182-1.289-.161 1.209 3.312 2.739c0 .08-.08.08-.08.16l-3.313-2.657-.161.886 2.665 2.658-.404.403-2.342-2.336-.081.563 1.939 2.256c-.081 0-.081.08-.162.08l-1.858-2.094-.485 2.98.323.565c-.08 0-.08.08-.161.08l-.242-.403v.242l.161.242c-.08 0-.08.08-.161.08l-.081-.08v.16c-.08.081-.162.081-.242.162l-2.1-1.208.726 1.852c-.08 0-.08.08-.161.08l-.808-2.013-.566-.322.727 2.578c-.404.16-.808.241-1.292.322l-1.05-3.786-.081-.08.808 3.946h-.162L16.4 24.65l-1.616-.886.081 5.236h-.161l-.081-5.317-1.293-.725-.969 5.88h-.162l.97-5.96-1.131-.645-.646 1.934.08 4.51h-.161l-.081-3.946-1.212 3.625c-.08 0-.08 0-.161-.08l1.373-4.029v-1.45l-1.293 1.611L8.16 27.55a5.152 5.152 0 0 1-1.13-.644l3.15-5.64-.485-.321-4.04 4.994c-.08 0-.08-.08-.16-.08l4.039-4.995-1.131-.645-4.605 3.948c0-.08-.08-.08-.08-.161l4.523-3.867-1.293-.725-1.696 1.047-1.858 3.222c-.323-.402-.566-.805-.889-1.208l.404-.725-.646.403c0-.08-.08-.08-.08-.161l.888-.484 1.373-2.497-3.15 1.209-.243-.484 3.797-1.53-.242-.081-3.716 1.047c-.162-.402-.243-.805-.324-1.289l2.505-.725-.323-.16-2.262.402v-.161l2.1-.403-1.373-.725-1.131-.16v-.162l.727.08L0 15.468v-.242l1.293.725 2.746.403 1.777-.322.728-1.29H0v-.563h6.867l.323-.484.888.484h.647V14.742h-.647l-.565.966 1.212-.322a4.85 4.85 0 0 0 .484 1.53l-.646.242.808.162c.08.08.08.16.162.241l-2.666 1.611 1.292.725 1.858-1.61c0 .08.081.08.081.16l-1.858 1.53 1.131.645 1.293-1.61c.08 0 .08.08.161.08l-1.292 1.61.484.242.97-1.691c.323.241.727.483 1.13.644l-.969 1.692.323.161.566-.644.404-1.128c.08 0 .08.08.161.08l-.242.645.485-.564c.08 0 .161 0 .161.08l-.808 1.048-.323.805 1.131.645.404-2.336h.162l-.404 2.416 1.373.564V20.3h.162v3.222l1.615.886-.484-2.658-.485-1.611c.485-.08.889-.161 1.293-.322l.969 2.497 3.716 4.27.08-.323-4.038-6.767c.08 0 .08-.08.161-.08l3.959 6.605.484-2.9-3.635-4.188c.242-.162.404-.323.566-.564l.484.483.646.08-.888-.724c0-.08.08-.081.08-.162l1.132.967.888.161-1.777-1.45c.162-.241.323-.483.404-.805l2.908 1.45-1.212-1.37-1.534-.564c.08-.241.161-.402.161-.644l.404.08-.323-.402v-.242l2.827.483.162-.966h-3.07V14.178h3.07l.162-.967-.405-.322-2.504.483-.404.08a6.796 6.796 0 0 0-.404-1.369l1.535-.644-.727-.564-1.13.645c0-.081-.081-.081-.081-.162l1.05-.644-.727-.645-.727.645c0-.08-.081-.08-.081-.161l.727-.645-.808-.644-.566.644c-.08 0-.08-.08-.161-.08l.565-.645-.323-.241-.404.725a5.154 5.154 0 0 0-1.13-.645l.565-.966-.404-.323-.404 1.209c-.08 0-.08-.08-.162-.08l.404-1.21-.888-.724L15.51 8.7h-.162l.323-1.853-1.13-.886V8.7h-.243l-1.131-1.289.161.725.162.645c-.404.08-.889.16-1.293.402l-.323-1.208-.565 1.047.242.484c-.08 0-.08.08-.161.08l-.243-.403-.242.403v.242l-.162.16v-.08l-.08.08c-.081 0-.081.082-.162.082l-.08-.081-.162-.08.242.241-.404.403-1.616-1.611-4.927-4.028c0-.08.08-.08.08-.161l3.474 2.82-3.07-3.062c.162-.16.243-.242.404-.403l5.17 5.156.081-.161-4.766-5.478c.08 0 .08-.08.161-.08l4.767 5.477.565-1.047-3.393-5.72c.081 0 .081-.08.162-.08l3.393 5.639.242-.403V5.075l-1.13-2.9-.89-.725c.081 0 .081-.08.162-.08l.646.483-.242-.645c.08 0 .08-.08.162-.08l.323.967.565.483-.404-1.53c.404-.162.808-.242 1.293-.323l.97 3.383.242.162-.728-3.626h.162l.727 3.787 1.777-3.142V.322h.162v.645l.323-.645c.485 0 .97.08 1.454.08l-1.777 3.142v2.417l1.13.967L16.804.483h.162l-1.05 6.525.969.725L19.227.967c.08 0 .08 0 .161.08l-2.343 6.848.404.322 3.636-6.445c.404.161.807.403 1.13.645L18.5 9.022l.323.322 4.847-5.88c.08 0 .08.08.161.08l-4.847 5.881.808.644 5.009-4.35.161-1.127.162.16-.162.806.485-.402c0 .08.08.08.08.16l-.645.565-.404 2.658 2.342-1.45c0 .08.081.08.081.161L24.397 8.7l-.323 1.772 3.716-1.45.242.484-3.958 1.61 4.12-1.208c.161.403.242.806.404 1.29l-4.767 1.369v.16l4.847-.966v.161l-4.927.967-.081.403 1.292 1.047h3.959v.402ZM8.725 13.615l-8.563-1.37v-.16l8.563 1.369v.16Z"/></g><defs><clipPath id="a"><path fill="#fff" d="M0 0h206v29H0z"/></clipPath></defs></svg>