<svg xmlns="http://www.w3.org/2000/svg" width="116" height="23" fill="none"><g fill="#fff" opacity=".6"><path d="M39.933 8.956c0 .645-.194 1.16-.646 1.418-.453.322-1.034.451-1.745.451h-2.326V7.023h2.326c.71 0 1.292.13 1.745.451.387.323.646.774.646 1.482Zm.452-2.835c-.388-.257-.905-.45-1.421-.58a7.062 7.062 0 0 0-1.68-.193H33.47v12.758h1.745V12.5h2.326c.452 0 .905-.064 1.422-.193.516-.129.969-.322 1.357-.58.452-.258.775-.644 1.033-1.095.259-.451.388-1.031.388-1.74 0-.644-.13-1.224-.388-1.675-.194-.451-.581-.838-.969-1.096ZM50.465 8.956c0 .451-.129.838-.323 1.096-.194.258-.517.45-.84.58a3.67 3.67 0 0 1-1.163.193h-2.391V7.023h1.939c.388 0 .71 0 1.034.065.323.064.646.129.904.258.259.128.453.322.646.58.13.257.194.58.194 1.03Zm1.034 2.32c.582-.58.84-1.353.84-2.32 0-.773-.13-1.417-.452-1.933-.323-.45-.711-.837-1.228-1.095-.452-.258-1.034-.387-1.615-.451-.582-.064-1.228-.129-1.81-.129H43.94v12.758h1.745V12.5h1.68l3.36 5.541.064.065h2.133l-3.554-5.8c.84-.128 1.615-.514 2.132-1.03ZM65.65 11.726a6.06 6.06 0 0 1-.323 1.933c-.258.58-.581 1.16-.97 1.611a4.249 4.249 0 0 1-1.485 1.096 4.732 4.732 0 0 1-1.939.386c-.71 0-1.357-.129-1.938-.386a4.249 4.249 0 0 1-1.487-1.096 3.728 3.728 0 0 1-.969-1.61c-.258-.58-.323-1.29-.323-1.934 0-.708.13-1.353.323-1.997.259-.58.582-1.16.97-1.61.452-.452.904-.838 1.486-1.096a4.733 4.733 0 0 1 1.938-.387c.71 0 1.357.13 1.939.387a4.249 4.249 0 0 1 1.486 1.095c.388.451.775.967.969 1.611.194.644.323 1.289.323 1.998Zm0-4.768c-.582-.58-1.292-1.095-2.132-1.417a6.93 6.93 0 0 0-2.65-.516c-.969 0-1.873.194-2.649.516-.775.322-1.486.837-2.132 1.417-.582.58-1.034 1.289-1.357 2.127a7.395 7.395 0 0 0-.517 2.641c0 .967.194 1.869.517 2.642.323.838.775 1.547 1.357 2.126.581.58 1.292 1.031 2.132 1.418a6.93 6.93 0 0 0 2.65.515 6.93 6.93 0 0 0 2.649-.515c.775-.322 1.486-.838 2.132-1.418.582-.58 1.034-1.288 1.357-2.126.323-.837.517-1.74.517-2.642 0-.966-.194-1.868-.517-2.641-.323-.838-.775-1.547-1.357-2.127ZM68.493 7.023h4.071v11.083h1.81V7.023h4.07V5.348h-9.95v1.675ZM81.998 12.307h5.945v-1.675h-5.945V7.023h6.332V5.348h-8.077v12.758h8.4V16.43h-6.655v-4.124ZM100.22 15.078c-.453.515-.97.966-1.486 1.288-.582.258-1.228.451-2.003.451a4.43 4.43 0 0 1-1.874-.386c-.582-.258-1.034-.645-1.422-1.096a5.63 5.63 0 0 1-.97-1.61c-.258-.58-.322-1.29-.322-1.998 0-.644.129-1.289.323-1.933.194-.58.517-1.16.97-1.61a4.248 4.248 0 0 1 1.485-1.096 4.43 4.43 0 0 1 1.874-.387c.582 0 1.163.129 1.68.387.517.257.97.58 1.357 1.095l.065.129 1.486-1.095-.065-.13a4.684 4.684 0 0 0-2.003-1.546c-.775-.322-1.615-.45-2.52-.45-.97 0-1.81.193-2.585.515-.775.322-1.486.837-2.067 1.417-.582.58-1.034 1.289-1.357 2.127-.323.837-.453 1.675-.453 2.641 0 .967.194 1.869.517 2.642.324.773.776 1.546 1.357 2.126.582.58 1.293 1.031 2.068 1.418a6.602 6.602 0 0 0 2.585.515c1.034 0 1.938-.193 2.714-.515.84-.387 1.486-.966 2.067-1.675l.065-.13-1.357-1.095h-.129ZM114.112 11.726c0 .71-.129 1.353-.323 1.933-.258.58-.581 1.16-.969 1.611a4.255 4.255 0 0 1-1.486 1.096 4.735 4.735 0 0 1-1.939.386c-.711 0-1.357-.129-1.938-.386a4.237 4.237 0 0 1-1.486-1.096 3.725 3.725 0 0 1-.97-1.61c-.258-.58-.323-1.29-.323-1.934 0-.708.129-1.353.323-1.997.259-.58.582-1.16.97-1.61.452-.452.904-.838 1.486-1.096a4.728 4.728 0 0 1 1.938-.387c.711 0 1.357.13 1.939.387a4.255 4.255 0 0 1 1.486 1.095c.388.451.775.967.969 1.611.194.644.323 1.289.323 1.998Zm1.357-2.641c-.323-.838-.775-1.547-1.357-2.127-.581-.58-1.292-1.095-2.132-1.417a6.933 6.933 0 0 0-2.649-.516c-.97 0-1.874.194-2.65.516-.775.322-1.486.837-2.132 1.417-.582.58-1.034 1.289-1.357 2.127a7.395 7.395 0 0 0-.517 2.641c0 .967.194 1.869.517 2.642.323.838.775 1.547 1.357 2.126.582.58 1.292 1.096 2.132 1.418.776.322 1.68.515 2.65.515.969 0 1.873-.193 2.649-.515.775-.322 1.486-.838 2.132-1.418.582-.58 1.034-1.288 1.357-2.126.323-.837.517-1.74.517-2.642a6.88 6.88 0 0 0-.517-2.641ZM7.172 9.858c0-.064.065-.129.065-.193h-.065l-.387-.451.517.258c.129-.258.193-.451.323-.645L5.234 7.474 2.455 4.253c0 .064-.064.064-.064.128l2.52 2.9L1.68 5.412l-.194.387 3.942 2.255-4.136-1.997-.194.386 5.364 2.642.452.516L.646 7.474c0 .065 0 .065-.064.13l6.461 2.254h.13Zm.84-1.546L2.65 3.995c0 .064-.064.064-.064.129L7.948 8.44c0-.065.064-.065.064-.13Zm-.904 1.61L.452 8.12c-.064.128-.064.257-.129.45l6.656 1.805c.064-.194.129-.322.129-.451Zm13.181 1.612h-1.55l-.13.773 3.296.515-1.616-1.288Zm-1.486-1.354.065-.193-.258.065.193.129Zm-.387-.322.387-.064v-.065l-.387.13Zm-.13.065-.323.064.323-.064Zm-1.098-1.096 1.938-.773.194-1.417-2.778 1.675.646.515Zm-.775-.58 2.907-1.74.323-2.061-3.877 3.35.647.451Zm2.455 2.191-.13.709h.97l-.84-.709Zm-.452 1.998-2.133-.323.388.387 1.68.451.065-.515Zm-.13.966-1.098-.322.065.064 1.033.323v-.065Zm-.129 1.482.71.387h.066l-.065-.065-.71-.322Zm0-.709.065-.515-.776-.258.711.773Zm-1.163-1.095-.581-.193.581.193Zm.97 2.255-.905-.129-.711-.129 1.422 1.16.193-.902Zm-.194 1.031-1.68-1.353-.582-.065 2.132 2.127.13-.709Zm-.194 1.224-2.779-2.77h-.13l2.844 3.221.065-.45Zm-.453-2.577.517.064-1.421-.837.904.773Zm-.129 6.185-2.778-3.221.904 2.384 1.81 1.03.064-.192Zm-2.068-.901-1.034-2.578-.129-.129.711 2.513.452.194Zm-1.098-3.029-.194-.515.13.386.064.13Zm-.582 2.062-.194-.644.194.644ZM9.5 16.946l-.194.193.064.065.13-.258Zm-.13.386-.129-.064-.323.387v.902l.452-1.224Zm-.452.065.194-.258-.194-.129v.387Zm-.13.193v-.322l-.645 1.095.646-.773Zm-1.356-3.93-.84-.129-1.616.644-.258.387.646.322 2.068-1.224Zm-2.197 1.353-.582-.322-.517.966 1.099-.644Zm-.84-2.255-.775.129h.129l.646-.13Zm-.582 1.224h-.064.064Zm-.323-.966h-.258l-.97.193.259.129.97-.322Zm-1.421.064.775-.129-1.421-.258.646.387Zm9.37-6.508V4.446l-.712-.58-.452.773.13.773 1.033 1.16Zm-.647-2.835.646.516V2.642l-.646 1.095Zm-.905-.515v-.065l-.194-.129.13.387.064-.193Zm-.84 1.417L8.66 3.286v.387l.387.966Zm-.064.193-.323-.773v1.289l.323-.516Zm-.453-1.546v-.515l-.258-.902-.388-.323.646 1.74Zm14.604 8.248h-2.585l1.68 1.353.84.128v.13l-.582-.065.517.451v.129l-.775-.645-3.554-.58-.064.516 4.264 1.16c-.064.129-.064.258-.13.45l-4.264-1.159v.129l4.136 1.417c0 .065 0 .065-.065.13l-4.135-1.418-.13.644.194.194 2.068 1.03 1.68.258c0 .065-.065.065-.065.129l-1.227-.193 1.034.515-.194.387-2.326-1.16h-.194l.064.064 2.326 1.353-.193.387-1.228-.709.97 1.096c0 .064-.066.064-.066.129l-1.227-1.418-1.745-1.03-.13.966 2.65 2.19c0 .065-.064.065-.064.13l-2.65-2.127-.129.709 2.132 2.126-.323.322-1.873-1.868-.065.45 1.55 1.805c-.064 0-.064.064-.129.064l-1.486-1.675-.387 2.384.258.451c-.065 0-.065.064-.13.064l-.193-.322v.194l.13.193c-.066 0-.066.064-.13.064l-.065-.064v.129c-.064.064-.129.064-.194.129l-1.68-.967.582 1.482c-.065 0-.065.065-.13.065l-.645-1.611-.453-.258.582 2.062c-.323.129-.646.193-1.034.258l-.84-3.029-.065-.064.646 3.157h-.129l-.646-3.286-1.292-.709.064 4.188h-.129l-.065-4.252-1.033-.58-.776 4.703h-.129l.775-4.768-.904-.515-.517 1.546.064 3.608h-.129l-.064-3.157-.97 2.9c-.064 0-.064 0-.129-.065l1.099-3.221v-1.16l-1.034 1.288-1.422 2.513a4.12 4.12 0 0 1-.904-.515l2.52-4.51-.388-.258-3.23 3.995c-.065 0-.065-.065-.13-.065l3.23-3.995-.904-.515-3.683 3.157c0-.064-.065-.064-.065-.129l3.619-3.092-1.034-.58-1.357.837-1.486 2.578c-.259-.323-.452-.645-.71-.967l.322-.58-.517.322c0-.064-.064-.064-.064-.128l.71-.387 1.099-1.998-2.52.967-.194-.387 3.037-1.224-.194-.064-2.972.837c-.13-.322-.194-.644-.259-1.03l2.003-.58-.258-.13-1.81.323v-.129l1.68-.322-1.098-.58-.904-.129v-.129l.581.065L0 12.113v-.193l1.034.58 2.197.322 1.421-.257.582-1.031H0v-.452h5.492l.259-.386.71.386h.518v.452h-.517l-.453.773.97-.258c.064.451.193.838.387 1.224l-.517.194.646.128c.065.065.065.13.13.194l-2.133 1.288 1.034.58 1.486-1.288c0 .064.065.064.065.129l-1.486 1.224.904.515L8.53 14.95c.065 0 .065.064.13.064l-1.034 1.289.387.193.776-1.353c.258.193.581.386.904.515l-.775 1.353.258.13.453-.516.323-.902c.064 0 .064.064.13.064l-.195.516.388-.451c.065 0 .13 0 .13.064l-.647.838-.258.644.904.515.323-1.868h.13l-.324 1.933 1.099.45V15.98h.13v2.578l1.292.709-.388-2.127-.388-1.288c.388-.065.71-.13 1.034-.258l.775 1.997 2.973 3.415.064-.258-3.23-5.412c.064 0 .064-.064.129-.064l3.166 5.283.388-2.32-2.908-3.35c.194-.129.323-.258.452-.451l.388.387.517.064-.711-.58c0-.064.065-.064.065-.129l.904.773.711.13-1.421-1.16c.129-.194.258-.387.323-.645l2.326 1.16-.97-1.095-1.227-.451c.064-.194.13-.322.13-.516l.322.065-.258-.323v-.193l2.261.387.13-.773h-2.456v-.452h2.456l.129-.773-.323-.257-2.003.386-.324.065a5.432 5.432 0 0 0-.323-1.096l1.228-.515-.581-.451-.905.515c0-.064-.065-.064-.065-.129l.84-.515-.581-.516-.582.516c0-.065-.064-.065-.064-.129l.581-.515-.646-.516-.452.516c-.065 0-.065-.065-.13-.065l.453-.515-.259-.194-.323.58a4.125 4.125 0 0 0-.904-.515l.452-.773-.323-.258-.323.966c-.065 0-.065-.064-.13-.064l.324-.967-.711-.58-.259 1.418h-.129l.259-1.482-.905-.709v2.191h-.194l-.905-1.03.13.579.129.515c-.323.065-.71.13-1.034.323L9.5 6.12l-.453.838.194.386c-.065 0-.065.065-.13.065l-.193-.322-.194.322v.193l-.129.129v-.064l-.065.064c-.064 0-.064.064-.129.064l-.065-.064-.129-.064.194.193-.323.322-1.292-1.289-3.942-3.221c0-.065.065-.065.065-.13L5.686 5.8 3.231 3.351l.323-.323 4.135 4.124.065-.129-3.812-4.381c.064 0 .064-.065.129-.065L7.883 6.96l.452-.838-2.713-4.575c.064 0 .064-.064.129-.064l2.714 4.51.194-.322V3.802l-.905-2.32-.71-.58c.064 0 .064-.064.128-.064l.517.386L7.495.71c.065 0 .065-.065.13-.065l.258.774.452.386L8.012.58C8.335.45 8.66.387 9.046.322l.776 2.706.194.13-.582-2.9h.13l.58 3.028L11.567.773V0h.13v.515L11.953 0c.388 0 .775.064 1.163.064l-1.422 2.513V4.51l.905.774.84-5.155h.13l-.84 5.219.775.58L15.379.515c.064 0 .064 0 .129.065l-1.874 5.477.323.257 2.908-5.154c.323.129.646.322.905.515L14.797 6.96l.259.258 3.877-4.704c.064 0 .064.064.129.064l-3.877 4.704.646.515 4.006-3.479.13-.902.129.129-.13.644.388-.322c0 .064.065.064.065.129l-.517.45-.323 2.127 1.874-1.16c0 .065.064.065.064.13l-2.003 1.16-.258 1.417 2.972-1.16.194.386-3.166 1.29 3.295-.967c.13.322.194.644.323 1.03l-3.812 1.096v.129l3.877-.773v.128l-3.942.774-.064.322 1.033.837h3.167v.323Zm-16.154-.902L.129 9.536v-.129l6.85 1.096v.129Z"/></g></svg>