<svg xmlns="http://www.w3.org/2000/svg" width="242" height="48" fill="none"><path fill="#fff" d="M83.001 18.616c0 1.339-.403 2.41-1.343 2.946-.94.67-2.149.938-3.626.938h-4.835v-7.902h4.835c1.477 0 2.686.268 3.626.937.806.67 1.343 1.607 1.343 3.08Zm.94-5.893c-.805-.536-1.88-.938-2.954-1.206-1.075-.267-2.283-.401-3.492-.401H69.57v26.517h3.626V25.982h4.835c.94 0 1.88-.134 2.955-.402 1.074-.268 2.014-.67 2.82-1.206.94-.535 1.612-1.339 2.15-2.276.536-.938.805-2.143.805-3.616 0-1.34-.269-2.545-.806-3.482-.403-.938-1.209-1.742-2.014-2.277ZM104.894 18.616c0 .937-.269 1.74-.672 2.276-.403.536-1.074.938-1.746 1.206a7.63 7.63 0 0 1-2.418.402h-4.969v-7.902h4.03c.805 0 1.477 0 2.148.134.672.134 1.343.268 1.881.535.537.268.94.67 1.343 1.206.268.536.403 1.205.403 2.143Zm2.148 4.82c1.209-1.204 1.746-2.811 1.746-4.82 0-1.607-.268-2.947-.94-4.018-.671-.938-1.477-1.741-2.552-2.277-.94-.536-2.148-.803-3.357-.937s-2.552-.268-3.76-.268h-6.85v26.517h3.626V25.982h3.492l6.984 11.517.134.134h4.432L102.61 25.58c1.746-.268 3.358-1.072 4.432-2.143ZM136.456 24.374a12.59 12.59 0 0 1-.672 4.018c-.537 1.206-1.209 2.41-2.015 3.348a8.82 8.82 0 0 1-3.089 2.277c-1.208.536-2.551.804-4.029.804-1.477 0-2.82-.268-4.029-.804a8.829 8.829 0 0 1-3.089-2.277 7.752 7.752 0 0 1-2.015-3.348c-.537-1.205-.671-2.678-.671-4.018 0-1.473.268-2.812.671-4.151.538-1.206 1.209-2.411 2.015-3.348.94-.938 1.88-1.742 3.089-2.277 1.209-.536 2.552-.804 4.029-.804 1.478 0 2.821.268 4.029.804a8.82 8.82 0 0 1 3.089 2.277c.806.937 1.612 2.008 2.015 3.348.403 1.339.672 2.678.672 4.151Zm0-9.91c-1.209-1.206-2.687-2.277-4.432-2.947-1.612-.67-3.492-1.071-5.507-1.071-2.015 0-3.895.402-5.507 1.072-1.611.67-3.089 1.74-4.432 2.946-1.209 1.205-2.149 2.678-2.82 4.42-.672 1.74-1.075 3.615-1.075 5.49 0 2.01.403 3.884 1.075 5.491.671 1.741 1.611 3.215 2.82 4.42 1.209 1.205 2.686 2.143 4.432 2.946 1.612.67 3.492 1.072 5.507 1.072 2.015 0 3.895-.402 5.507-1.072 1.611-.67 3.089-1.74 4.432-2.946 1.208-1.205 2.149-2.679 2.82-4.42.672-1.74 1.075-3.616 1.075-5.49 0-2.01-.403-3.884-1.075-5.492-.671-1.74-1.612-3.214-2.82-4.42ZM142.365 14.598h8.461v23.035h3.761V14.598h8.461v-3.482h-20.683v3.482ZM170.435 25.58h12.356v-3.482h-12.356v-7.5h13.162v-3.482h-16.788v26.517h17.46v-3.482h-13.834V25.58ZM208.31 31.339c-.94 1.071-2.015 2.009-3.089 2.678-1.209.536-2.552.938-4.164.938-1.477 0-2.686-.268-3.895-.804-1.208-.536-2.149-1.34-2.954-2.277a11.695 11.695 0 0 1-2.015-3.348c-.537-1.205-.672-2.678-.672-4.151 0-1.34.269-2.679.672-4.018.403-1.206 1.074-2.411 2.015-3.348a8.82 8.82 0 0 1 3.089-2.277c1.208-.536 2.417-.804 3.894-.804 1.209 0 2.418.268 3.492.804 1.075.536 2.015 1.205 2.821 2.277l.134.267L210.727 15l-.134-.268c-1.075-1.473-2.552-2.545-4.164-3.214-1.611-.67-3.357-.938-5.238-.938-2.014 0-3.76.402-5.372 1.072-1.611.67-3.089 1.74-4.298 2.946-1.208 1.205-2.149 2.678-2.82 4.42-.672 1.74-.94 3.482-.94 5.49 0 2.01.403 3.884 1.074 5.491.672 1.608 1.612 3.215 2.821 4.42 1.208 1.205 2.686 2.143 4.297 2.946a13.723 13.723 0 0 0 5.373 1.072c2.149 0 4.029-.402 5.641-1.072 1.746-.803 3.089-2.009 4.297-3.482l.135-.268-2.821-2.276h-.268ZM237.185 24.374c0 1.474-.268 2.813-.671 4.018-.537 1.206-1.209 2.41-2.015 3.348a8.829 8.829 0 0 1-3.089 2.277c-1.209.536-2.552.804-4.029.804-1.477 0-2.82-.268-4.029-.804a8.829 8.829 0 0 1-3.089-2.277 7.752 7.752 0 0 1-2.015-3.348c-.537-1.205-.671-2.678-.671-4.018 0-1.473.268-2.812.671-4.151.537-1.206 1.209-2.411 2.015-3.348.94-.938 1.88-1.742 3.089-2.277 1.209-.536 2.552-.804 4.029-.804 1.477 0 2.82.268 4.029.804a8.829 8.829 0 0 1 3.089 2.277c.806.937 1.612 2.008 2.015 3.348.403 1.339.671 2.678.671 4.151Zm2.821-5.49c-.672-1.742-1.612-3.215-2.821-4.42-1.208-1.206-2.686-2.277-4.432-2.947-1.611-.67-3.492-1.071-5.506-1.071-2.015 0-3.895.402-5.507 1.072-1.612.67-3.089 1.74-4.432 2.946-1.209 1.205-2.149 2.678-2.82 4.42-.672 1.74-1.075 3.615-1.075 5.49 0 2.01.403 3.884 1.075 5.491.671 1.741 1.611 3.215 2.82 4.42 1.209 1.205 2.686 2.277 4.432 2.946 1.612.67 3.492 1.072 5.507 1.072 2.014 0 3.895-.402 5.506-1.072 1.612-.67 3.089-1.74 4.432-2.946 1.209-1.205 2.149-2.679 2.821-4.42.671-1.74 1.074-3.616 1.074-5.49 0-2.01-.403-3.884-1.074-5.492ZM14.908 20.49c0-.133.134-.267.134-.401h-.134l-.806-.938 1.075.536c.268-.536.403-.937.671-1.34l-4.97-2.812L5.105 8.84c0 .134-.135.134-.135.268l5.238 6.027-6.715-3.884-.403.803 8.193 4.688-8.596-4.152-.403.804 11.148 5.49.94 1.072-13.028-4.42c0 .134 0 .134-.134.268l13.43 4.688h.269Zm1.746-3.213L5.507 8.302c0 .134-.135.134-.135.268l11.148 8.973c0-.134.134-.134.134-.268Zm-1.88 3.348L.94 16.875c-.134.268-.134.535-.268.937l13.833 3.75c.134-.402.269-.67.269-.937Zm27.398 3.348H38.95l-.269 1.607 6.85 1.071-3.358-2.678Zm-3.089-2.813.135-.401-.538.133.403.268Zm-.806-.67.806-.133v-.134l-.806.268Zm-.268.135-.672.134.672-.134Zm-2.283-2.277 4.029-1.607.403-2.947-5.776 3.482 1.344 1.072Zm-1.612-1.205 6.044-3.616.671-4.286-8.058 6.964 1.343.938Zm5.104 4.553-.27 1.473h2.016l-1.746-1.473Zm-.94 4.152-4.433-.67.806.804 3.492.937.134-1.071Zm-.27 2.009-2.282-.67.134.134 2.149.67v-.134Zm-.268 3.08 1.477.804h.135l-.134-.134-1.478-.67Zm0-1.473.134-1.072-1.611-.535 1.477 1.607Zm-2.417-2.277-1.21-.402 1.21.402Zm2.014 4.688-1.88-.268-1.477-.268 2.954 2.41.403-1.875Zm-.403 2.142-3.492-2.812-1.208-.134 4.432 4.42.268-1.474Zm-.403 2.545-5.775-5.759h-.268l5.91 6.696.133-.937Zm-.94-5.357 1.075.134-2.955-1.741 1.88 1.607Zm-.268 12.857-5.776-6.697 1.88 4.956 3.761 2.143.135-.402Zm-4.298-1.875-2.15-5.357-.268-.268 1.478 5.223.94.402Zm-2.283-6.295-.403-1.071.268.803.135.268Zm-1.21 4.286-.402-1.34.403 1.34Zm-7.789-4.955-.403.401.134.134.27-.535Zm-.268.803-.27-.134-.67.804v1.875l.94-2.545Zm-.94.134.402-.536-.403-.267v.803Zm-.27.402v-.67l-1.342 2.277 1.343-1.607Zm-2.82-8.17-1.746-.267-3.357 1.339-.538.803 1.344.67 4.297-2.545Zm-4.566 2.813-1.209-.67-1.074 2.01 2.283-1.34Zm-1.746-4.688-1.612.268h.269l1.343-.268Zm-1.209 2.545H7.79h.134Zm-.671-2.009h-.538l-2.014.402.537.268 2.015-.67Zm-2.955.134 1.611-.268-2.954-.535 1.343.803ZM23.772 13.66V9.24l-1.477-1.204-.94 1.607.268 1.607 2.15 2.41ZM22.43 7.769l1.343 1.071V5.491L22.43 7.768Zm-1.88-1.072v-.134l-.403-.267.269.803.134-.402Zm-1.746 2.947-.806-2.813v.804l.806 2.009Zm-.134.401-.672-1.607v2.679l.672-1.072Zm-.94-3.214V5.76l-.538-1.875-.806-.67 1.343 3.616Zm30.353 17.143h-5.373l3.492 2.812 1.746.268v.268l-1.208-.134 1.074.938v.267l-1.611-1.339-7.387-1.205-.135 1.071 8.865 2.41c-.135.269-.135.537-.27.938l-8.863-2.41v.268l8.595 2.946c0 .134 0 .134-.134.268l-8.596-2.947-.268 1.34.403.401 4.297 2.143 3.492.536c0 .134-.134.134-.134.268l-2.552-.402 2.15 1.072-.404.803-4.835-2.41h-.403l.135.133 4.835 2.813-.403.803-2.552-1.473 2.015 2.277c0 .134-.135.134-.135.268l-2.552-2.947-3.626-2.143-.268 2.01 5.506 4.553c0 .134-.134.134-.134.268l-5.507-4.42-.268 1.473 4.432 4.42-.672.67-3.895-3.884-.134.937 3.223 3.75c-.134 0-.134.134-.268.134l-3.09-3.482-.805 4.955.537.938c-.134 0-.134.134-.268.134l-.403-.67v.402l.268.402c-.134 0-.134.133-.268.133l-.135-.133v.267c-.134.134-.268.134-.403.268l-3.492-2.009 1.21 3.08c-.135 0-.135.135-.27.135l-1.343-3.349-.94-.535 1.21 4.285c-.672.268-1.344.402-2.15.536l-1.746-6.295-.134-.133 1.343 6.562h-.269l-1.343-6.83-2.686-1.473.134 8.705h-.268l-.134-8.84-2.15-1.205-1.611 9.777h-.269l1.612-9.91-1.88-1.072-1.075 3.214.134 7.5h-.268l-.134-6.562-2.015 6.026c-.134 0-.134 0-.269-.134l2.284-6.696v-2.41l-2.15 2.678-2.954 5.223a8.568 8.568 0 0 1-1.88-1.071l5.238-9.375-.806-.536L9.4 42.59c-.134 0-.134-.134-.268-.134l6.715-8.304-1.88-1.071-7.656 6.562c0-.134-.134-.134-.134-.268l7.521-6.428-2.149-1.205-2.82 1.74-3.09 5.358c-.536-.67-.94-1.34-1.476-2.01l.671-1.205-1.074.67c0-.134-.135-.134-.135-.268l1.478-.803 2.283-4.152-5.238 2.009-.403-.804 6.312-2.544-.403-.134-6.178 1.74C1.21 30.67 1.074 30 .94 29.197l4.164-1.205-.538-.268-3.76.67v-.268l3.492-.67-2.283-1.205-1.88-.268v-.268l1.208.134L0 25.178v-.402l2.149 1.206 4.566.67 2.955-.536 1.209-2.143H0V23.035h11.416l.537-.803 1.478.803h1.074V23.973h-1.074l-.94 1.607 2.014-.536a8.06 8.06 0 0 0 .806 2.545l-1.075.402 1.344.268c.134.133.134.267.268.401l-4.432 2.679 2.149 1.205 3.089-2.678c0 .134.134.134.134.267L13.7 32.678l1.88 1.072 2.15-2.68c.134 0 .134.135.268.135l-2.149 2.678.806.402 1.612-2.812a8.57 8.57 0 0 0 1.88 1.071l-1.612 2.813.538.267.94-1.071.671-1.875c.134 0 .134.134.269.134l-.403 1.071.806-.937c.134 0 .268 0 .268.134l-1.343 1.74-.537 1.34 1.88 1.072.672-3.884h.268l-.671 4.017 2.283.938v-5.09h.269v5.358l2.686 1.473-.806-4.42-.806-2.678c.806-.134 1.478-.268 2.15-.536l1.61 4.152 6.179 7.098.134-.536-6.715-11.25c.134 0 .134-.133.268-.133l6.582 10.981.805-4.82-6.043-6.965c.402-.268.671-.536.94-.938l.806.804 1.074.134-1.477-1.205c0-.134.134-.134.134-.268l1.88 1.607 1.478.268-2.955-2.41c.268-.403.537-.804.671-1.34l4.835 2.41-2.014-2.276-2.552-.938c.134-.401.269-.67.269-1.071l.671.134-.537-.67v-.402l4.7.804.27-1.607h-5.104V23.035h5.103l.269-1.607-.672-.536-4.163.804-.672.134c-.134-.804-.403-1.607-.671-2.277l2.552-1.071-1.21-.938-1.88 1.072c0-.134-.134-.134-.134-.268l1.746-1.072-1.209-1.07-1.208 1.07c0-.133-.135-.133-.135-.267l1.21-1.072-1.344-1.071-.94 1.071c-.134 0-.134-.134-.269-.134l.94-1.071-.537-.402-.671 1.206a8.573 8.573 0 0 0-1.88-1.072l.94-1.607-.672-.536-.671 2.01c-.135 0-.135-.135-.27-.135l.672-2.009-1.477-1.205-.537 2.946h-.269l.537-3.08-1.88-1.473v4.553h-.403l-1.88-2.143.269 1.206.268 1.071c-.671.134-1.477.268-2.149.67l-.537-2.009-.94 1.741.403.804c-.134 0-.134.133-.269.133l-.403-.67-.403.67v.402l-.268.268v-.134l-.134.134c-.135 0-.135.134-.27.134l-.133-.134-.27-.134.404.402-.672.67-2.686-2.679L5.91 7.634c0-.134.135-.134.135-.268l5.775 4.687-5.104-5.089.672-.67 8.596 8.572.134-.268-7.924-9.107c.134 0 .134-.134.268-.134l7.924 9.107.94-1.741-5.64-9.509c.134 0 .134-.134.268-.134l5.641 9.375.403-.67V7.903l-1.88-4.822-1.478-1.205c.135 0 .135-.134.269-.134l1.075.804-.403-1.072c.134 0 .134-.134.268-.134l.537 1.607.94.804-.671-2.545c.672-.268 1.343-.401 2.149-.535l1.612 5.625.402.267L19.61.536h.268l1.21 6.294 2.954-5.223V0h.268v1.071L24.848 0c.806 0 1.611.134 2.417.134L24.31 5.357v4.018l1.88 1.607L27.936.268h.268l-1.746 10.848 1.612 1.205 3.895-11.25c.134 0 .134 0 .269.134L28.339 12.59l.671.536L35.054 2.41c.672.268 1.343.67 1.88 1.071l-6.178 10.982.537.536 8.059-9.777c.134 0 .134.134.269.134l-8.059 9.777 1.343 1.071 8.327-7.232.269-1.875.268.268-.268 1.34.806-.67c0 .134.134.134.134.267l-1.075.938-.671 4.42 3.895-2.411c0 .134.134.134.134.268l-4.163 2.41-.538 2.947 6.178-2.411c.135.268.27.536.403.804l-6.58 2.678 6.849-2.009c.269.67.403 1.34.672 2.143l-7.925 2.277v.268l8.059-1.607v.267l-8.193 1.607-.134.67 2.149 1.741h6.58v.67Zm-33.577-1.875L.27 19.82v-.268l14.236 2.277v.268Z"/></svg>