<svg xmlns="http://www.w3.org/2000/svg" width="318" height="52" fill="none"><g clip-path="url(#a)"><path fill="url(#b)" d="M51.977 23.851c-4.96-6.39-12.51-7.995-18.861-5.63-5.724 2.15-10.957 8.078-10.44 16.563.41 6.881 5.207 11.94 14.474 14.714a21.635 21.635 0 0 1-8.34 2.366c-8.314.68-15.591-1.795-21.479-7.778-8.395-8.431-9.757-22.084-3.189-32.01.41-.626 1.145-1.17 1.854-1.415 7.114-2.448 14.446-3.672 21.996-3.508.736.027 1.471 0 2.262-.218-2.29-1.822-4.988-2.638-7.74-3.128-2.754-.49-5.534-.598-8.096-.87 14.8-8.186 35.76 1.36 37.56 20.914Z" opacity=".5"/><path fill="url(#c)" d="M38.95 21.078c6.922.027 12.401 5.575 12.32 12.456-.083 6.772-5.697 12.21-12.539 12.157-6.76-.055-12.238-5.549-12.265-12.293-.055-6.854 5.533-12.348 12.483-12.32Zm4.142 6.146c-2.889 4.107-5.724 8.132-8.558 12.157 3.434 2.502 8.095 1.659 10.52-1.768 2.4-3.345 1.582-7.887-1.962-10.39Z"/><path fill="url(#d)" d="M80.025 18.276v4.325H73.32v19.907h-4.907V22.6h-6.705v-4.324h18.317Z"/><path fill="url(#e)" d="M77.326 34.295c0-5.195 4.17-8.649 8.831-8.649s8.831 3.454 8.831 8.649c0 5.167-4.17 8.621-8.83 8.621-4.662 0-8.832-3.454-8.832-8.621Zm13.002 0c0-2.557-1.881-4.351-4.17-4.351-2.29 0-4.17 1.794-4.17 4.351 0 2.53 1.88 4.324 4.17 4.324 2.289 0 4.17-1.795 4.17-4.324Z"/><path fill="url(#f)" d="M113.005 42.481h-5.751l-5.779-7.098v7.098h-4.606V17.134h4.606v13.952l4.171-5.032h5.914l-6.405 7.235 7.85 9.192Z"/><path fill="url(#g)" d="M124.453 26.082h4.606v16.426h-4.606v-2.665c-.709 2.149-3.326 3.1-4.934 3.1-4.306 0-6.541-2.882-6.514-7.805v-9.056h4.606v8.784c0 2.557 1.554 3.753 3.135 3.753 1.662 0 3.707-.924 3.707-3.862v-8.675Z"/><path fill="url(#h)" d="M142.551 26.082h4.96l-10.139 24.477h-4.933l3.897-9.6-6.514-14.877h5.097l3.87 9.491 3.762-9.491Z"/><path fill="url(#i)" d="M160.186 26.082h4.606v16.426h-4.606v-2.366c-1.091 1.686-3.217 2.774-5.424 2.774-4.552 0-7.932-3.508-7.932-8.621 0-5.086 3.325-8.649 8.041-8.649 2.126 0 4.224.925 5.315 2.611v-2.175Zm-.164 8.213a4.322 4.322 0 0 0-4.306-4.351c-2.399 0-4.198 1.958-4.198 4.351 0 2.285 1.799 4.324 4.225 4.324 2.344 0 4.279-1.958 4.279-4.324Z"/><path fill="url(#j)" d="M193.983 33.506v9.002h-4.66v-8.866c0-2.556-1.336-3.644-2.971-3.644-1.963-.027-3.244 1.36-3.244 4.433v8.077h-4.579v-8.784c0-2.611-1.335-3.726-2.889-3.726-1.663 0-3.353.925-3.353 3.862v8.648h-4.606V26.082h4.606v3.209c.355-2.42 2.781-3.617 4.661-3.617 2.426 0 4.307 1.17 5.288 3.236 1.199-2.393 3.761-3.236 5.506-3.236 4.115-.027 6.241 2.91 6.241 7.832Z"/><path fill="url(#k)" d="M209.002 26.082h4.606v16.426h-4.606v-2.366c-1.091 1.686-3.216 2.774-5.424 2.774-4.552 0-7.932-3.508-7.932-8.621 0-5.086 3.325-8.649 8.041-8.649 2.126 0 4.224.925 5.315 2.611v-2.175Zm-.137 8.213a4.322 4.322 0 0 0-4.306-4.351c-2.399 0-4.198 1.958-4.198 4.351 0 2.285 1.799 4.324 4.225 4.324 2.344 0 4.279-1.958 4.279-4.324Z"/><path fill="url(#l)" d="M233.287 18.276c6.978 0 11.039 5.276 11.039 12.157 0 6.854-4.061 12.048-11.039 12.048h-9.512V18.276h9.512Zm0 19.881c4.061 0 6.133-3.59 6.133-7.724 0-4.16-2.072-7.832-6.133-7.832h-4.606v15.583h4.606v-.027Z"/><path fill="url(#m)" d="M262.561 35.79h-12.375c.491 1.932 2.044 3.047 4.225 3.047 1.69 0 3.325-.762 4.334-1.931l2.671 2.72c-1.554 2.067-4.416 3.318-7.305 3.318-5.07 0-8.776-3.563-8.776-8.622 0-5.303 4.061-8.648 8.749-8.648 4.715 0 8.558 3.345 8.558 8.376.028.435-.027.98-.081 1.74Zm-4.552-2.99c-.137-1.932-1.717-3.156-3.816-3.156-1.908 0-3.516.952-4.007 3.155h7.823Z"/><path fill="url(#n)" d="M280.522 33.506v9.002h-4.606v-8.757c0-2.556-1.553-3.726-3.134-3.726-1.663 0-3.707.87-3.707 3.862v8.621h-4.607V26.082h4.607v2.774c.708-2.203 3.298-3.21 4.933-3.21 4.279 0 6.542 2.938 6.514 7.86Z"/><path fill="url(#o)" d="M292.679 26.082v3.59h-3.489v12.836h-4.634V29.672h-2.998v-3.59h2.998v-5.984h4.607v5.984h3.516Z"/><path fill="url(#p)" d="M305.871 26.082h4.606v16.426h-4.606v-2.366c-1.09 1.686-3.216 2.774-5.424 2.774-4.552 0-7.932-3.508-7.932-8.621 0-5.086 3.326-8.649 8.041-8.649 2.126 0 4.225.925 5.315 2.611v-2.175Zm-.136 8.213a4.322 4.322 0 0 0-4.307-4.351c-2.398 0-4.197 1.958-4.197 4.351 0 2.285 1.799 4.324 4.224 4.324 2.344 0 4.28-1.958 4.28-4.324Z"/><path fill="url(#q)" d="M313.394 42.481V17.134H318V42.48h-4.606Z"/></g><defs><linearGradient id="j" x1="194.351" x2="170.524" y1="42.508" y2="22.319" gradientUnits="userSpaceOnUse"><stop stop-color="#3A3A3A"/><stop offset="1" stop-color="#0F0F0F"/></linearGradient><linearGradient id="b" x1="52.704" x2="-9.804" y1="51.973" y2="18.068" gradientUnits="userSpaceOnUse"><stop stop-color="#3A3A3A"/><stop offset="1" stop-color="#0F0F0F"/></linearGradient><linearGradient id="d" x1="80.281" x2="55.876" y1="42.508" y2="32.504" gradientUnits="userSpaceOnUse"><stop stop-color="#3A3A3A"/><stop offset="1" stop-color="#0F0F0F"/></linearGradient><linearGradient id="e" x1="95.235" x2="74.214" y1="42.916" y2="31.257" gradientUnits="userSpaceOnUse"><stop stop-color="#3A3A3A"/><stop offset="1" stop-color="#0F0F0F"/></linearGradient><linearGradient id="f" x1="113.23" x2="90.793" y1="42.481" y2="34.735" gradientUnits="userSpaceOnUse"><stop stop-color="#3A3A3A"/><stop offset="1" stop-color="#0F0F0F"/></linearGradient><linearGradient id="g" x1="129.283" x2="109.557" y1="42.944" y2="32.758" gradientUnits="userSpaceOnUse"><stop stop-color="#3A3A3A"/><stop offset="1" stop-color="#0F0F0F"/></linearGradient><linearGradient id="h" x1="147.759" x2="123.894" y1="50.559" y2="41.205" gradientUnits="userSpaceOnUse"><stop stop-color="#3A3A3A"/><stop offset="1" stop-color="#0F0F0F"/></linearGradient><linearGradient id="i" x1="165.043" x2="143.836" y1="42.916" y2="30.954" gradientUnits="userSpaceOnUse"><stop stop-color="#3A3A3A"/><stop offset="1" stop-color="#0F0F0F"/></linearGradient><linearGradient id="c" x1="51.617" x2="21.892" y1="45.691" y2="29.445" gradientUnits="userSpaceOnUse"><stop stop-color="#3A3A3A"/><stop offset="1" stop-color="#0F0F0F"/></linearGradient><linearGradient id="k" x1="213.859" x2="192.652" y1="42.916" y2="30.954" gradientUnits="userSpaceOnUse"><stop stop-color="#3A3A3A"/><stop offset="1" stop-color="#0F0F0F"/></linearGradient><linearGradient id="l" x1="244.613" x2="218.224" y1="42.481" y2="30.33" gradientUnits="userSpaceOnUse"><stop stop-color="#3A3A3A"/><stop offset="1" stop-color="#0F0F0F"/></linearGradient><linearGradient id="m" x1="262.892" x2="242.093" y1="42.944" y2="31.634" gradientUnits="userSpaceOnUse"><stop stop-color="#3A3A3A"/><stop offset="1" stop-color="#0F0F0F"/></linearGradient><linearGradient id="n" x1="280.747" x2="261.021" y1="42.508" y2="32.323" gradientUnits="userSpaceOnUse"><stop stop-color="#3A3A3A"/><stop offset="1" stop-color="#0F0F0F"/></linearGradient><linearGradient id="o" x1="292.834" x2="276.696" y1="42.508" y2="38.165" gradientUnits="userSpaceOnUse"><stop stop-color="#3A3A3A"/><stop offset="1" stop-color="#0F0F0F"/></linearGradient><linearGradient id="p" x1="310.728" x2="289.521" y1="42.916" y2="30.954" gradientUnits="userSpaceOnUse"><stop stop-color="#3A3A3A"/><stop offset="1" stop-color="#0F0F0F"/></linearGradient><linearGradient id="q" x1="318.064" x2="310.964" y1="42.481" y2="41.782" gradientUnits="userSpaceOnUse"><stop stop-color="#3A3A3A"/><stop offset="1" stop-color="#0F0F0F"/></linearGradient><clipPath id="a"><path fill="#fff" d="M0 0h318v52H0z"/></clipPath></defs></svg>